<?xml version="1.0" standalone="no"?>
<!DOCTYPE svg PUBLIC "-//W3C//DTD SVG 20010904//EN"
 "http://www.w3.org/TR/2001/REC-SVG-20010904/DTD/svg10.dtd">
<svg version="1.0" xmlns="http://www.w3.org/2000/svg"
 width="300.000000pt" height="300.000000pt" viewBox="0 0 300.000000 300.000000"
 preserveAspectRatio="xMidYMid meet">
<metadata>
Created by potrace 1.11, written by Peter Selinger 2001-2013
</metadata>
<g transform="translate(0.000000,300.000000) scale(0.100000,-0.100000)"
fill="#000000" stroke="none">
<path d="M180 1846 l0 -316 90 0 90 0 0 79 0 79 108 4 c123 5 169 22 220 84
84 102 62 273 -46 349 l-44 30 -209 3 -209 3 0 -315z m349 128 c28 -35 26 -69
-4 -99 -21 -22 -33 -25 -95 -25 l-70 0 0 75 0 75 74 0 c69 0 76 -2 95 -26z"/>
<path d="M929 2003 c-129 -66 -175 -230 -102 -365 46 -86 138 -125 267 -115
67 5 158 36 172 58 3 5 -9 34 -26 65 -25 42 -36 54 -49 48 -9 -4 -41 -14 -72
-22 -52 -15 -57 -14 -95 4 -21 10 -40 27 -42 37 -3 15 9 17 137 17 94 0 142 4
147 11 4 7 7 42 7 78 1 139 -77 211 -228 211 -47 0 -74 -6 -116 -27z m169
-119 c43 -30 28 -44 -48 -44 -38 0 -70 4 -70 9 0 16 51 51 74 51 12 0 32 -7
44 -16z"/>
<path d="M1425 2025 c-5 -2 -23 -6 -38 -9 -28 -7 -28 -7 -25 -79 l3 -72 33 3
32 4 0 -171 0 -171 95 0 95 0 0 140 c0 138 1 141 26 167 22 22 30 24 71 18 25
-4 51 -9 58 -11 9 -4 15 15 19 63 4 37 9 76 12 85 4 13 -5 20 -37 28 -56 15
-106 5 -139 -29 -26 -26 -28 -26 -39 -8 -22 34 -117 58 -166 42z"/>
<path d="M1991 2017 c-48 -19 -108 -72 -134 -120 -32 -61 -31 -194 1 -255 45
-85 145 -129 272 -120 61 5 180 46 180 63 0 6 -60 127 -66 134 -2 2 -26 -6
-53 -18 -69 -29 -106 -27 -142 8 -36 37 -40 94 -8 135 34 44 109 25 109 -27 0
-21 8 -21 98 0 l73 17 -7 30 c-11 54 -40 100 -82 130 -37 26 -52 30 -124 33
-51 1 -96 -2 -117 -10z"/>
<path d="M2525 2006 c-64 -29 -110 -82 -130 -148 -44 -149 20 -286 151 -324
80 -23 182 -15 257 19 31 14 57 28 57 32 0 18 -64 115 -74 111 -6 -3 -35 -12
-65 -22 -63 -19 -120 -8 -146 29 l-15 22 147 5 148 5 3 75 c2 63 -1 83 -21
120 -49 94 -197 130 -312 76z m163 -122 c43 -30 28 -44 -48 -44 -68 0 -77 4
-62 26 22 34 75 42 110 18z"/>
<path d="M1499 1503 c-57 -9 -84 -88 -45 -131 35 -39 143 -34 166 8 26 49 -3
120 -49 120 -11 0 -25 2 -33 3 -7 2 -25 2 -39 0z"/>
<path d="M180 1145 l0 -315 90 0 90 0 2 165 3 166 135 -165 135 -165 83 0 82
-1 0 315 0 315 -90 0 -90 0 0 -165 c0 -91 -3 -165 -7 -165 -5 1 -69 75 -143
165 l-134 165 -78 0 -78 0 0 -315z"/>
<path d="M1050 1315 c-136 -44 -205 -199 -154 -348 19 -56 84 -118 142 -135
88 -26 242 -8 299 36 l22 17 -35 57 -35 57 -46 -21 c-60 -27 -138 -21 -165 12
-10 12 -18 26 -18 31 0 5 65 9 145 9 l144 0 7 36 c10 53 -2 131 -26 170 -48
76 -177 113 -280 79z m120 -125 c14 0 40 -30 40 -46 0 -11 -17 -14 -75 -14
-41 0 -75 2 -75 4 0 30 59 71 88 61 8 -3 17 -5 22 -5z"/>
<path d="M2547 1314 c-66 -20 -129 -84 -152 -154 -32 -95 -7 -218 57 -277 83
-78 277 -87 382 -18 l26 17 -32 57 c-17 31 -32 57 -33 59 -1 1 -22 -7 -46 -18
-85 -38 -189 -13 -189 46 0 2 65 4 144 4 164 0 156 -4 156 89 0 159 -142 247
-313 195z m151 -137 c6 -5 12 -18 12 -28 0 -17 -8 -19 -75 -19 -41 0 -75 2
-75 4 0 50 92 79 138 43z"/>
<path d="M1440 1119 c0 -222 7 -257 61 -284 33 -17 108 -19 162 -4 l37 10 0
57 c0 67 -10 87 -39 79 -35 -9 -41 21 -41 187 l0 156 -90 0 -90 0 0 -201z"/>
<path d="M1895 1306 c-159 -71 -176 -316 -29 -416 47 -31 151 -40 207 -17 l37
16 0 -27 c-1 -80 -96 -95 -231 -38 -13 6 -19 -5 -33 -60 -9 -37 -13 -70 -9
-75 19 -18 123 -39 192 -39 91 0 159 27 208 83 53 61 58 88 58 347 l0 235 -85
3 c-67 2 -87 0 -96 -13 -10 -14 -14 -14 -40 0 -36 18 -138 19 -179 1z m196
-156 c15 -8 19 -21 19 -60 0 -57 -14 -70 -79 -70 -50 0 -81 27 -81 70 0 43 31
70 81 70 22 0 49 -5 60 -10z"/>
</g>
</svg>
