<svg id="Layer_1" data-name="Layer 1" xmlns="http://www.w3.org/2000/svg" xmlns:xlink="http://www.w3.org/1999/xlink" viewBox="0 0 2790.16 1020.35"><defs><style>.cls-1,.cls-6{fill:none;}.cls-2{clip-path:url(#clip-path);}.cls-3{clip-path:url(#clip-path-2);}.cls-4{clip-path:url(#clip-path-3);}.cls-5,.cls-7{fill:#f8f6f6;}.cls-5,.cls-6,.cls-7{stroke:#f8f6f6;}.cls-5,.cls-6{stroke-linecap:round;stroke-linejoin:round;}.cls-5{stroke-width:2px;}.cls-6{stroke-width:4px;}.cls-7{stroke-miterlimit:10;}.cls-8{clip-path:url(#clip-path-4);}.cls-9{clip-path:url(#clip-path-5);}.cls-10{clip-path:url(#clip-path-6);}.cls-11{clip-path:url(#clip-path-7);}.cls-12{clip-path:url(#clip-path-8);}</style><clipPath id="clip-path" transform="translate(872.77 23.35)"><rect class="cls-1" width="290" height="320"/></clipPath><clipPath id="clip-path-2" transform="translate(872.77 23.35)"><rect class="cls-1" x="300" width="290" height="320"/></clipPath><clipPath id="clip-path-3" transform="translate(872.77 23.35)"><rect class="cls-1" x="600" width="870" height="700"/></clipPath><clipPath id="clip-path-4" transform="translate(872.77 23.35)"><rect class="cls-1" x="-772" y="567.33" width="290" height="213.33"/></clipPath><clipPath id="clip-path-5" transform="translate(872.77 23.35)"><rect class="cls-1" x="-772" y="780.67" width="290" height="213.33"/></clipPath><clipPath id="clip-path-6" transform="translate(872.77 23.35)"><rect class="cls-1" x="1508" width="290" height="213.33"/></clipPath><clipPath id="clip-path-7" transform="translate(872.77 23.35)"><rect class="cls-1" x="1508" y="220" width="290" height="213.33"/></clipPath><clipPath id="clip-path-8" transform="translate(872.77 23.35)"><rect class="cls-1" x="1508" y="440" width="290" height="213.33"/></clipPath><image id="image" width="1280" height="738" xlink:href="../../../_sources/maquettes_pn_2018/Links/capture_1bicro.jpg"/><image id="image-2" width="1280" height="738" xlink:href="../../../_sources/maquettes_pn_2018/Links/capture_2bicro.jpg"/></defs><title>hands</title><g class="cls-2"><image width="627" height="920" transform="translate(870.38 1.05) scale(0.47 0.48)" xlink:href="../../../_sources/maquettes_pn_2018/Links/PERCE NEIGE CAMPAGNE 2018 AFFICHES-8_modifié-1.jpg"/></g><g class="cls-3"><image width="627" height="920" transform="translate(1170.94 4.72) scale(0.47 0.48)" xlink:href="../../../_sources/maquettes_pn_2018/Links/PERCE NEIGE CAMPAGNE 2018 AFFICHES-7_modifié-1.jpg"/></g><g class="cls-4"><image width="3822" height="1626" transform="translate(1122.73 18.49) scale(0.44 0.44)" xlink:href="../../../_sources/maquettes_pn_2018/Links/capture_video1.png"/></g><path class="cls-5" d="M13.66,403.93a11.57,11.57,0,0,0,9.4,4.85c5.73,0,10.34-4.08,10.34-9.75s-4.61-9.75-10.52-9.75a14.11,14.11,0,0,0-7.56,2.24l-2.6-.94L15,370.43h20.1v3.66H18.51l-1.18,10.64a18.76,18.76,0,0,1-.42,2.36H17a13.17,13.17,0,0,1,6.33-1.59c8.33,0,14.3,6,14.3,13.53,0,7.68-6.33,13.65-14.42,13.65a15,15,0,0,1-12.18-5.91Z" transform="translate(872.77 23.35)"/><path class="cls-5" d="M45,391.17c0-11.94,3.55-21.45,14.37-21.45s14.3,9.51,14.3,21.45-3.49,21.51-14.3,21.51S45,403.23,45,391.17Zm24.41,0c0-9.87-2.18-17.61-10-17.61s-10.11,7.74-10.11,17.61,2.19,17.67,10.11,17.67S69.39,401.1,69.39,391.17Z" transform="translate(872.77 23.35)"/><line class="cls-6" x1="898.1" y1="385.05" x2="898.1" y2="393.31"/><path class="cls-6" d="M26.36,343a59.56,59.56,0,0,0-4.93,10.9c-2.52,7.11-.69,10.78,3.9,10.78s6.2-4.13,4.36-9.75S25.45,348,26.36,343Z" transform="translate(872.77 23.35)"/><line class="cls-6" x1="931.61" y1="385.05" x2="931.61" y2="393.31"/><line class="cls-6" x1="898.1" y1="435.57" x2="898.1" y2="439.53"/><line class="cls-6" x1="931.61" y1="435.57" x2="931.61" y2="439.53"/><path class="cls-6" d="M59.87,343a58.72,58.72,0,0,0-4.93,10.9c-2.52,7.11-.69,10.78,3.9,10.78s6.19-4.13,4.36-9.75S59,348,59.87,343Z" transform="translate(872.77 23.35)"/><line class="cls-6" x1="877.59" y1="442.39" x2="951.94" y2="442.39"/><path class="cls-7" d="M179.6,392.66c-2.34-3.65-9.7-13.9-10.15-14.52a4.42,4.42,0,0,0-3.06-2,5.25,5.25,0,0,0-3.95.89,5.05,5.05,0,0,0-1.53,6.95l1.71,3.3-8.71-3.48-9.44-19.34,5.3,2.68a6.06,6.06,0,0,0,8.36-2,5.84,5.84,0,0,0,.81-4.55,6.24,6.24,0,0,0-2.7-3.83c-.81-.53-14.73-9.8-19.67-12.83a22.37,22.37,0,0,0-21.11-.71,23,23,0,0,0-11.59,30h0L115,397a6.09,6.09,0,0,0,5.57,3.47,6.68,6.68,0,0,0,2.6-.53,5.52,5.52,0,0,0,2.61-2.32l1.44,3a5.7,5.7,0,0,0,3.5,3.12,5.58,5.58,0,0,0,2.07.36,7.18,7.18,0,0,0,2.33-.45l1.08.36a5.51,5.51,0,0,0-1.53,2,4.8,4.8,0,0,0-.09,4,4.5,4.5,0,0,0,2.7,2.58l18.77,7.31h0a18,18,0,0,0,6,1.07,20.13,20.13,0,0,0,18.06-11.67A17.38,17.38,0,0,0,179.6,392.66Zm-48,8.56a3.2,3.2,0,0,1-1.89-1.7l-3.5-7.39a.31.31,0,0,0-.09-.18l-7.46-15.68a1.34,1.34,0,0,0-2.42,1.16l7.45,15.68a3.3,3.3,0,0,1-1.61,4.45,3.36,3.36,0,0,1-4.5-1.6l-11.22-23.7a20.23,20.23,0,0,1,10.15-26.47,19.84,19.84,0,0,1,18.59.63c4.94,2.94,19.49,12.65,19.58,12.74h0a3.42,3.42,0,0,1,1.53,2.14,3.71,3.71,0,0,1-.45,2.58,3.49,3.49,0,0,1-2.15,1.52A3.85,3.85,0,0,1,151,365a.09.09,0,0,1-.09-.09l-9.79-5a1.39,1.39,0,0,0-1.44.09c-4.94,3.48-12.93,2.85-17.07-1.25a1.42,1.42,0,0,0-2,0,1.39,1.39,0,0,0,0,2c4.85,4.81,13.65,5.71,19.76,2.14l9.43,19.61-3.14-1.52a5.2,5.2,0,0,0-4.58.45l-4.22-8.91a1.3,1.3,0,0,0-1.8-.63,1.28,1.28,0,0,0-.63,1.78l4.67,9.81c-.09.08-.09.17-.18.35a4.77,4.77,0,0,0-.45,2.5l-1.34-.54a5.26,5.26,0,0,0-4.32.27l-3-6.24a1.3,1.3,0,0,0-1.8-.62,1.28,1.28,0,0,0-.63,1.78l3.33,7a4.75,4.75,0,0,0-.27.62,4.8,4.8,0,0,0-.09,4,5.23,5.23,0,0,0,2.06,2.32,5.69,5.69,0,0,0-1.52,2,4.8,4.8,0,0,0-.09,4l.27.54C131.9,401.31,131.81,401.22,131.63,401.22Zm46.08,6.95c-3.68,7.93-12.75,12-20.66,9.27l-18.77-7.31a2.14,2.14,0,0,1-1.17-1.16,2.28,2.28,0,0,1,.09-1.87,2.65,2.65,0,0,1,3.23-1.43l12.49,4.9a1.38,1.38,0,1,0,1-2.58l-12.49-4.81-.18-.09s-6.11-2.41-6.29-2.5a1.73,1.73,0,0,1-.72-.89,2.28,2.28,0,0,1,.09-1.87,2.63,2.63,0,0,1,1.53-1.42c.54-.18,14.19,4.9,14.19,4.9a1.41,1.41,0,0,0,1.8-.81,1.38,1.38,0,0,0-.81-1.78L135,392.48a2.09,2.09,0,0,1-1.17-1.15,2.28,2.28,0,0,1,.09-1.87,3.54,3.54,0,0,1,1.08-1.25,2.6,2.6,0,0,1,2.16-.27l18.68,7.31a1.41,1.41,0,0,0,1.8-.8,1.39,1.39,0,0,0-.81-1.79l-13.11-5.17h0a2.14,2.14,0,0,1-1.26-1.24,2.23,2.23,0,0,1,0-1.7,2.68,2.68,0,0,1,.9-1.07,2.26,2.26,0,0,1,2.33-.35l19.32,8a1.37,1.37,0,0,0,1.52-.36,1.35,1.35,0,0,0,.18-1.51s-3.59-6.69-3.59-6.78a2.37,2.37,0,0,1,.81-3.29,2.8,2.8,0,0,1,1.88-.45,2.3,2.3,0,0,1,1.35.89h0c.09.09,7.73,10.79,10.06,14.44C179.78,398,180,403.27,177.71,408.17Z" transform="translate(872.77 23.35)"/><polyline class="cls-6" points="1143.06 413.14 1143.06 439.35 1086.32 439.35 1086.32 413.14"/><path class="cls-6" d="M256.31,375a8.45,8.45,0,0,0-11.92,0,8.33,8.33,0,0,0-2.46,5.92,8.34,8.34,0,0,0-2.47-5.92,8.45,8.45,0,0,0-11.92,0,8.35,8.35,0,0,0,0,11.84l14.39,14.08,14.38-14.08a8.33,8.33,0,0,0,0-11.84Z" transform="translate(872.77 23.35)"/><polyline class="cls-6" points="1075.77 407.51 1114.77 367.35 1153.77 407.51"/><g class="cls-8"><use transform="translate(59.79 572.88) scale(0.32 0.32)" xlink:href="#image"/></g><g class="cls-9"><use transform="translate(0 750.66) scale(0.37 0.37)" xlink:href="#image-2"/></g><g class="cls-10"><image width="1280" height="738" transform="translate(2310.77) scale(0.35 0.35)" xlink:href="../../../_sources/maquettes_pn_2018/Links/capture_4bicro.jpg"/></g><g class="cls-11"><use transform="translate(1467.03 202.2) scale(0.32 0.32)" xlink:href="#image"/></g><g class="cls-12"><use transform="translate(1407.23 386.65) scale(0.37 0.37)" xlink:href="#image-2"/></g></svg>