<?xml version="1.0" encoding="utf-8"?>
<!-- Generator: Adobe Illustrator 21.0.2, SVG Export Plug-In . SVG Version: 6.00 Build 0)  -->
<svg version="1.1" id="Layer_1" xmlns="http://www.w3.org/2000/svg" xmlns:xlink="http://www.w3.org/1999/xlink" x="0px" y="0px"
	 viewBox="0 0 19 17" style="enable-background:new 0 0 19 17;" xml:space="preserve">
<style type="text/css">
	.st0{fill:#FFFFFF;}
</style>
<path class="st0" d="M13.7,0c-1.4,0-2.6,0.6-3.6,1.5l0,0l0,0L9.5,2.3L8.9,1.6l0,0l0,0l0,0C7.9,0.6,6.7,0,5.3,0S2.6,0.6,1.5,1.6
	C0.6,2.6,0,4,0,5.5c0,1.4,0.6,2.8,1.5,3.9l7.1,7.3C8.8,16.8,9.2,17,9.5,17s0.7-0.1,0.9-0.4l7.1-7.3c1-1,1.5-2.5,1.5-3.9
	s-0.6-2.8-1.5-3.9C16.4,0.6,15.1,0,13.7,0L13.7,0z"/>
</svg>
